<?xml version="1.0" encoding="UTF-8"?>
<svg xmlns="http://www.w3.org/2000/svg" xmlns:xlink="http://www.w3.org/1999/xlink" width="89pt" height="32pt" viewBox="0 0 89 32" version="1.1">
<g id="surface1">
<path style="fill:none;stroke-width:0.3985;stroke-linecap:butt;stroke-linejoin:miter;stroke:rgb(0%,0%,0%);stroke-opacity:1;stroke-miterlimit:10;" d="M 0.00116334 -0.00101306 L 85.041581 -0.00101306 M 0.00116334 14.174343 L 85.041581 14.174343 M 0.00116334 28.341887 L 85.041581 28.341887 M 0.00116334 -0.00101306 L 0.00116334 28.345793 M 14.172613 -0.00101306 L 14.172613 28.345793 M 28.347969 -0.00101306 L 28.347969 28.345793 M 42.519419 -0.00101306 L 42.519419 28.345793 M 56.694775 -0.00101306 L 56.694775 28.345793 M 70.866225 -0.00101306 L 70.866225 28.345793 M 85.033769 -0.00101306 L 85.033769 28.345793 " transform="matrix(1.00003,0,0,-1.00003,2.096493,30.147424)"/>
<path style=" stroke:none;fill-rule:nonzero;fill:rgb(32.998657%,32.998657%,32.998657%);fill-opacity:1;" d="M 3.515625 28.730469 L 3.515625 17.390625 L 29.027344 17.390625 L 29.027344 28.730469 Z M 3.515625 28.730469 "/>
<path style=" stroke:none;fill-rule:nonzero;fill:rgb(66.999817%,66.999817%,66.999817%);fill-opacity:1;" d="M 3.515625 14.554688 L 3.515625 3.21875 L 29.027344 3.21875 L 29.027344 14.554688 Z M 3.515625 14.554688 "/>
<path style=" stroke:none;fill-rule:nonzero;fill:rgb(32.998657%,32.998657%,32.998657%);fill-opacity:1;" d="M 31.863281 28.730469 L 31.863281 3.21875 L 43.199219 3.21875 L 43.199219 28.730469 Z M 31.863281 28.730469 "/>
<path style=" stroke:none;fill-rule:nonzero;fill:rgb(32.998657%,32.998657%,32.998657%);fill-opacity:1;" d="M 46.035156 28.730469 L 46.035156 17.390625 L 71.546875 17.390625 L 71.546875 28.730469 Z M 46.035156 28.730469 "/>
<path style=" stroke:none;fill-rule:nonzero;fill:rgb(66.999817%,66.999817%,66.999817%);fill-opacity:1;" d="M 46.035156 14.554688 L 46.035156 3.21875 L 71.546875 3.21875 L 71.546875 14.554688 Z M 46.035156 14.554688 "/>
<path style=" stroke:none;fill-rule:nonzero;fill:rgb(66.999817%,66.999817%,66.999817%);fill-opacity:1;" d="M 74.382812 28.730469 L 74.382812 3.21875 L 85.722656 3.21875 L 85.722656 28.730469 Z M 74.382812 28.730469 "/>
</g>
</svg>
