<?xml version="1.0" encoding="UTF-8"?>
<svg xmlns="http://www.w3.org/2000/svg" xmlns:xlink="http://www.w3.org/1999/xlink" width="176pt" height="32pt" viewBox="0 0 176 32" version="1.1">
<g id="surface1">
<path style="fill:none;stroke-width:0.3985;stroke-linecap:butt;stroke-linejoin:miter;stroke:rgb(0%,0%,0%);stroke-opacity:1;stroke-miterlimit:10;" d="M 0.00116334 -0.00101306 L 85.041581 -0.00101306 M 0.00116334 14.174343 L 85.041581 14.174343 M 0.00116334 28.341887 L 85.041581 28.341887 M 0.00116334 -0.00101306 L 0.00116334 28.345793 M 14.172613 -0.00101306 L 14.172613 28.345793 M 28.347969 -0.00101306 L 28.347969 28.345793 M 42.519419 -0.00101306 L 42.519419 28.345793 M 56.694775 -0.00101306 L 56.694775 28.345793 M 70.866225 -0.00101306 L 70.866225 28.345793 M 85.033769 -0.00101306 L 85.033769 28.345793 " transform="matrix(1.00003,0,0,-1.00003,1.096493,30.147424)"/>
<path style=" stroke:none;fill-rule:nonzero;fill:rgb(32.998657%,32.998657%,32.998657%);fill-opacity:1;" d="M 2.515625 28.730469 L 2.515625 3.21875 L 13.851562 3.21875 L 13.851562 28.730469 Z M 2.515625 28.730469 "/>
<path style=" stroke:none;fill-rule:nonzero;fill:rgb(66.999817%,66.999817%,66.999817%);fill-opacity:1;" d="M 16.6875 28.730469 L 16.6875 3.21875 L 28.027344 3.21875 L 28.027344 28.730469 Z M 16.6875 28.730469 "/>
<path style=" stroke:none;fill-rule:nonzero;fill:rgb(32.998657%,32.998657%,32.998657%);fill-opacity:1;" d="M 30.863281 28.730469 L 30.863281 3.21875 L 42.199219 3.21875 L 42.199219 28.730469 Z M 30.863281 28.730469 "/>
<path style=" stroke:none;fill-rule:nonzero;fill:rgb(66.999817%,66.999817%,66.999817%);fill-opacity:1;" d="M 45.035156 28.730469 L 45.035156 3.21875 L 56.375 3.21875 L 56.375 28.730469 Z M 45.035156 28.730469 "/>
<path style=" stroke:none;fill-rule:nonzero;fill:rgb(32.998657%,32.998657%,32.998657%);fill-opacity:1;" d="M 59.210938 28.730469 L 59.210938 3.21875 L 70.546875 3.21875 L 70.546875 28.730469 Z M 59.210938 28.730469 "/>
<path style=" stroke:none;fill-rule:nonzero;fill:rgb(66.999817%,66.999817%,66.999817%);fill-opacity:1;" d="M 73.382812 28.730469 L 73.382812 3.21875 L 84.722656 3.21875 L 84.722656 28.730469 Z M 73.382812 28.730469 "/>
<path style="fill:none;stroke-width:0.3985;stroke-linecap:butt;stroke-linejoin:miter;stroke:rgb(0%,0%,0%);stroke-opacity:1;stroke-miterlimit:10;" d="M 0.00131318 -0.00101306 L 85.041731 -0.00101306 M 0.00131318 14.174343 L 85.041731 14.174343 M 0.00131318 28.341887 L 85.041731 28.341887 M 0.00131318 -0.00101306 L 0.00131318 28.345793 M 14.172763 -0.00101306 L 14.172763 28.345793 M 28.348119 -0.00101306 L 28.348119 28.345793 M 42.519569 -0.00101306 L 42.519569 28.345793 M 56.694925 -0.00101306 L 56.694925 28.345793 M 70.866375 -0.00101306 L 70.866375 28.345793 M 85.033918 -0.00101306 L 85.033918 28.345793 " transform="matrix(1.00003,0,0,-1.00003,89.854156,30.147424)"/>
<path style=" stroke:none;fill-rule:nonzero;fill:rgb(32.998657%,32.998657%,32.998657%);fill-opacity:1;" d="M 91.273438 28.730469 L 91.273438 17.390625 L 116.785156 17.390625 L 116.785156 28.730469 Z M 91.273438 28.730469 "/>
<path style=" stroke:none;fill-rule:nonzero;fill:rgb(66.999817%,66.999817%,66.999817%);fill-opacity:1;" d="M 91.273438 14.554688 L 91.273438 3.21875 L 116.785156 3.21875 L 116.785156 14.554688 Z M 91.273438 14.554688 "/>
<path style=" stroke:none;fill-rule:nonzero;fill:rgb(66.999817%,66.999817%,66.999817%);fill-opacity:1;" d="M 119.621094 28.730469 L 119.621094 17.390625 L 145.132812 17.390625 L 145.132812 28.730469 Z M 119.621094 28.730469 "/>
<path style=" stroke:none;fill-rule:nonzero;fill:rgb(32.998657%,32.998657%,32.998657%);fill-opacity:1;" d="M 119.621094 14.554688 L 119.621094 3.21875 L 145.132812 3.21875 L 145.132812 14.554688 Z M 119.621094 14.554688 "/>
<path style=" stroke:none;fill-rule:nonzero;fill:rgb(32.998657%,32.998657%,32.998657%);fill-opacity:1;" d="M 147.96875 28.730469 L 147.96875 17.390625 L 173.480469 17.390625 L 173.480469 28.730469 Z M 147.96875 28.730469 "/>
<path style=" stroke:none;fill-rule:nonzero;fill:rgb(66.999817%,66.999817%,66.999817%);fill-opacity:1;" d="M 147.96875 14.554688 L 147.96875 3.21875 L 173.480469 3.21875 L 173.480469 14.554688 Z M 147.96875 14.554688 "/>
</g>
</svg>
